<?xml version="1.0" standalone="no"?>
<!DOCTYPE svg PUBLIC "-//W3C//DTD SVG 20010904//EN"
 "http://www.w3.org/TR/2001/REC-SVG-20010904/DTD/svg10.dtd">
<svg version="1.0" xmlns="http://www.w3.org/2000/svg"
 width="700.000000pt" height="700.000000pt" viewBox="0 0 700.000000 700.000000"
 preserveAspectRatio="xMidYMid meet">
<metadata>
Created by potrace 1.11, written by Peter Selinger 2001-2013
</metadata>
<g transform="translate(0.000000,700.000000) scale(0.100000,-0.100000)"
fill="#000000" stroke="none">
<path d="M343 6985 c-162 -44 -278 -159 -327 -324 -14 -50 -16 -334 -15 -3160
0 -2680 2 -3113 15 -3160 43 -159 166 -282 327 -326 81 -21 6226 -22 6310 0
167 43 289 165 332 332 13 50 15 443 14 3157 0 3406 4 3149 -61 3266 -43 78
-118 146 -207 189 l-76 36 -3130 2 c-2673 2 -3138 0 -3182 -12z"/>
</g>
</svg>
